<svg width="471" height="297" viewBox="0 0 471 297" fill="none" xmlns="http://www.w3.org/2000/svg">
<path d="M150.518 157.402C154.006 157.402 156.974 158.608 159.423 161.019C161.908 163.431 163.151 166.343 163.151 169.757C163.151 173.133 161.908 176.027 159.423 178.438C156.974 180.85 154.006 182.056 150.518 182.056C147.031 182.056 144.044 180.85 141.558 178.438C139.11 176.027 137.885 173.133 137.885 169.757C137.885 166.343 139.11 163.431 141.558 161.019C144.044 158.608 147.031 157.402 150.518 157.402ZM186.136 141.263C190.143 151.688 191.46 161.743 190.087 171.426C188.714 181.11 185.245 188.771 179.68 194.41C173.892 199.939 167.307 203.574 159.923 205.318C152.577 207.062 145.306 207.136 138.108 205.541C130.91 203.983 124.659 200.977 119.353 196.525C114.085 192.11 110.653 186.489 109.057 179.663C107.462 172.799 108.557 164.97 112.341 156.177C115.457 148.98 120.596 142.487 127.757 136.699C128.276 136.254 128.795 135.809 129.315 135.363C130.502 134.176 131.838 133.137 133.322 132.247C134.843 131.357 136.679 130.948 138.831 131.023C141.317 131.171 143.599 131.635 145.677 132.414C147.754 133.193 149.312 134.325 150.351 135.809C150.314 135.883 150.259 135.957 150.184 136.031C150.11 136.217 150.036 136.347 149.962 136.421C149.925 136.495 149.869 136.588 149.795 136.699C149.683 136.81 149.591 136.922 149.517 137.033C149.479 137.07 149.461 137.107 149.461 137.144C149.387 137.219 149.312 137.293 149.238 137.367C149.164 137.441 149.108 137.497 149.071 137.534C148.96 137.645 148.849 137.757 148.737 137.868C148.663 137.942 148.608 137.998 148.57 138.035C147.717 138.814 146.994 139.445 146.4 139.927C145.843 140.372 145.306 140.78 144.786 141.151C143.97 141.708 142.987 142.506 141.837 143.544C140.723 144.546 139.072 146.253 136.883 148.664C132.394 153.784 129.333 159.071 127.701 164.525C126.106 169.942 125.623 175.081 126.254 179.941C126.885 184.801 128.35 188.938 130.65 192.351C132.951 195.765 135.77 198.009 139.11 199.085C144.749 200.643 150.11 199.846 155.193 196.692C160.313 193.576 164.543 188.957 167.882 182.835C171.221 176.713 173.057 169.923 173.391 162.466C173.466 160.24 173.299 158.07 172.89 155.955C172.482 153.803 172.037 151.762 171.555 149.833C170.664 146.828 170.238 144.342 170.275 142.376C170.312 140.409 171.481 139.259 173.781 138.925C176.081 138.591 180.199 139.37 186.136 141.263ZM224.603 174.71C225.605 174.71 226.459 175.062 227.163 175.767C227.906 176.472 228.277 177.344 228.277 178.383C228.277 179.384 227.906 180.256 227.163 180.998C226.459 181.703 225.605 182.056 224.603 182.056C221.264 182.167 217.981 181.796 214.753 180.943C210.969 179.867 207.648 177.826 204.791 174.821C201.972 171.779 199.912 167.549 198.614 162.132C197.723 157.717 197.315 151.818 197.39 144.435C197.464 137.052 197.909 129.91 198.725 123.009C199.541 116.071 200.617 111.081 201.953 108.038C204.958 106.814 207.926 106.369 210.857 106.703C213.826 107.037 216.33 107.5 218.37 108.094C217.48 117.221 216.812 124.363 216.367 129.52C215.922 134.64 215.625 138.907 215.477 142.32C215.106 150.371 215.291 156.771 216.033 161.52C216.775 166.269 217.907 169.664 219.428 171.704C220.949 173.708 222.674 174.71 224.603 174.71ZM263.501 135.809C263.39 136.143 263.26 136.477 263.112 136.81C262.778 137.478 262.407 138.183 261.998 138.925C261.108 140.446 260.31 142.227 259.605 144.268C257.936 150.093 257.435 155.547 258.103 160.63C258.771 165.675 260.106 169.645 262.11 172.539C264.15 175.396 266.358 176.453 268.732 175.711C271.255 174.672 273.166 172.409 274.465 168.922C275.763 165.397 276.32 161.427 276.134 157.012C275.949 152.56 274.91 148.423 273.018 144.602C271.163 140.743 268.343 137.942 264.558 136.198C264.225 136.05 263.872 135.92 263.501 135.809ZM223.265 174.71H223.32C226.585 174.524 229.423 172.817 231.835 169.59C234.284 166.325 236.343 162.559 238.012 158.292C239.682 154.026 240.999 150.26 241.964 146.995C242.483 145.362 242.91 144.064 243.244 143.099C244.283 140.168 245.637 137.515 247.306 135.141C249.013 132.766 251.369 130.93 254.374 129.631C257.379 128.296 261.386 127.721 266.395 127.906C272.072 128.574 277.414 131.023 282.423 135.252C285.205 137.627 287.58 140.409 289.546 143.6C291.55 146.791 292.923 150.297 293.665 154.118C294.481 158.57 296.113 162.967 298.562 167.308C300.194 170.053 301.845 171.983 303.515 173.096C305.185 174.172 306.817 174.71 308.412 174.71C309.451 174.71 310.323 175.062 311.028 175.767C311.733 176.472 312.085 177.344 312.085 178.383C312.085 179.384 311.733 180.238 311.028 180.943C310.323 181.648 309.451 182 308.412 182H308.357C304.684 182 301.289 181.314 298.172 179.941C295.056 178.568 292.218 176.732 289.658 174.431C286.244 178.772 281.866 181.666 276.524 183.113C271.218 184.597 265.857 184.708 260.44 183.447C255.061 182.186 250.59 179.644 247.028 175.823C246.62 175.34 246.267 174.914 245.971 174.543C245.711 174.209 245.433 173.856 245.136 173.485C244.95 173.3 244.783 173.151 244.635 173.04C244.524 172.892 244.412 172.762 244.301 172.65C244.227 172.539 244.153 172.446 244.078 172.372C244.041 172.298 244.004 172.242 243.967 172.205C243.93 172.168 243.893 172.15 243.856 172.15C243.819 172.112 243.8 172.094 243.8 172.094C243.8 172.094 243.782 172.094 243.745 172.094C243.745 172.094 243.745 172.112 243.745 172.15C243.745 172.15 243.726 172.15 243.689 172.15C243.652 172.112 243.615 172.075 243.578 172.038C243.541 172.001 243.503 171.964 243.466 171.927C240.572 175.043 237.53 177.511 234.339 179.329C231.186 181.11 227.476 182 223.209 182C222.17 181.963 221.317 181.61 220.649 180.943C219.944 180.238 219.592 179.384 219.592 178.383C219.592 177.344 219.963 176.472 220.705 175.767C221.409 175.062 222.263 174.71 223.265 174.71ZM308.14 182C307.064 182 306.173 181.685 305.468 181.054C304.726 180.423 304.355 179.588 304.355 178.55C304.355 177.511 304.708 176.639 305.413 175.934C306.118 175.192 306.989 174.784 308.028 174.71C312.926 174.413 316.803 172.576 319.66 169.2C322.553 165.824 324.78 161.724 326.338 156.901C327.896 152.041 329.158 147.273 330.122 142.598C330.716 139.89 331.309 137.423 331.903 135.197C332.089 134.529 332.237 133.898 332.348 133.304C332.534 132.266 332.812 131.412 333.183 130.744C333.554 130.077 334.278 129.706 335.353 129.631C338.062 129.52 340.585 129.78 342.922 130.41C343.071 130.41 343.2 130.429 343.312 130.466C344.462 130.726 345.297 130.967 345.816 131.19C346.373 131.375 346.744 131.672 346.929 132.08C347.115 132.488 347.3 133.119 347.486 133.972C347.56 134.454 347.69 135.03 347.875 135.697L354.498 162.911C356.13 157.123 357.095 152.059 357.392 147.718C357.689 143.377 357.763 139.63 357.614 136.477C357.577 136.031 357.559 135.642 357.559 135.308C357.484 134.306 357.54 133.712 357.726 133.527C357.911 133.341 358.449 133.36 359.34 133.583C359.785 133.694 360.323 133.805 360.953 133.917L367.799 135.141C367.947 135.141 368.096 135.159 368.244 135.197C369.394 135.382 370.21 135.568 370.693 135.753C371.212 135.939 371.583 136.272 371.806 136.755C372.028 137.237 372.269 137.998 372.529 139.037C372.603 139.408 372.696 139.797 372.807 140.205C373.883 144.769 374.514 149.351 374.7 153.951C374.922 158.774 375.609 163.394 376.759 167.809C377.872 171.408 379.226 173.522 380.821 174.153C382.454 174.747 383.993 174.339 385.44 172.929C386.887 171.482 387.963 169.478 388.668 166.918C389.447 163.023 389.206 158.849 387.945 154.397C386.683 149.944 385.385 146.141 384.049 142.988C382.899 140.242 382.417 138.647 382.602 138.202C386.683 136.198 390.764 136.421 394.846 138.87C396.812 140.242 398.574 142.58 400.133 145.882C401.728 149.147 402.841 152.838 403.472 156.957C404.102 161.075 403.954 165.063 403.027 168.922C402.099 172.78 400.096 175.971 397.016 178.494C393.937 181.017 389.466 182.315 383.604 182.39C378.781 182.315 375.182 181.648 372.807 180.386C370.433 179.088 368.244 177.381 366.24 175.266C366.129 175.118 365.999 174.988 365.851 174.877C364.775 176.064 363.699 177.474 362.623 179.106C361.77 180.405 360.861 181.666 359.896 182.89C356.78 186.378 353.589 187.714 350.324 186.897C347.096 186.118 344.684 183.744 343.089 179.774C341.902 176.027 340.919 172.057 340.14 167.864C339.657 165.379 339.249 163.523 338.915 162.299C336.875 165.564 334.389 168.699 331.458 171.704C328.527 174.71 325.113 177.177 321.218 179.106C317.359 180.998 313 181.963 308.14 182ZM412.786 180.664C412.378 179.217 412.211 175.322 412.285 168.977C412.359 162.633 412.563 155.491 412.897 147.551C413.268 139.612 413.695 132.544 414.177 126.348C414.66 120.152 415.142 116.497 415.624 115.384C418.667 114.271 421.561 113.882 424.306 114.216C427.089 114.55 429.519 115.143 431.597 115.997C432.116 118.519 432.264 123.435 432.042 130.744C431.856 138.053 431.504 145.882 430.984 154.23C430.502 162.577 430.075 169.571 429.704 175.21C429.519 177.585 429.389 179.44 429.315 180.776C425.901 181.777 422.952 182.186 420.466 182C418.017 181.814 415.55 181.406 413.064 180.776C412.953 180.739 412.86 180.701 412.786 180.664ZM385.628 105.033C385.813 101.323 387.186 97.6313 389.746 93.9583C392.306 90.2852 395.274 87.5954 398.65 85.8887C403.325 83.7739 407.462 83.0133 411.061 83.607C414.66 84.1635 417.869 85.4806 420.689 87.5583C423.508 89.6359 426.106 91.8435 428.48 94.1809C431.04 96.8151 433.507 98.8556 435.882 100.303C438.293 101.75 440.779 101.787 443.339 100.414C445.639 98.9299 447.494 96.8336 448.904 94.1252C450.314 91.3797 451.52 88.56 452.522 85.6661C453.19 83.8852 453.857 82.2342 454.525 80.713C458.198 80.1194 461.352 80.3791 463.986 81.4922C466.62 82.6052 468.735 84.2933 470.33 86.5565C469.737 89.5617 468.475 92.771 466.546 96.1843C464.654 99.5977 462.984 102.176 461.537 103.92C458.05 108.001 454.099 110.506 449.683 111.433C445.268 112.361 440.872 112.064 436.494 110.543C432.116 108.984 428.22 106.536 424.807 103.197C419.576 97.9652 415.587 94.8672 412.842 93.9026C410.133 92.938 408.074 93.6243 406.664 95.9617C405.217 98.2991 403.77 101.805 402.323 106.48C402.138 107.074 401.934 107.667 401.711 108.261C398.409 109.151 395.367 109.263 392.584 108.595C389.765 107.927 387.446 106.74 385.628 105.033Z" fill="#D1D6E0"/>
<path d="M35.8522 143.809C35.5768 136.704 35.0261 129.325 34.2 121.67C33.8145 118.035 33.3188 114.786 32.713 111.922L51.3 118.2C53.0623 123.432 54.329 131.913 55.1 143.643V143.891C67.8217 144.387 78.5058 144.993 87.1522 145.709V145.791H87.0696C86.8493 146.122 86.2159 147.003 85.1696 148.435C83.8478 150.307 82.1957 152.648 80.213 155.457C78.2855 158.265 76.2478 161.184 74.1 164.213L64.8478 163.635C61.9841 163.47 58.7899 163.332 55.2652 163.222C55.2101 163.828 55.1826 164.461 55.1826 165.122C54.687 178.284 54.0812 189.271 53.3652 198.083L53.2826 198C53.0072 197.835 52.0986 197.201 50.5565 196.1C48.6841 194.833 46.3435 193.209 43.5348 191.226C40.7812 189.243 37.8899 187.178 34.8609 185.03L35.4391 175.778C35.6594 172.143 35.8246 167.93 35.9348 163.139C27.9493 163.359 19.5507 163.91 10.7391 164.791C7.10435 165.232 3.85507 165.755 0.991304 166.361L7.18696 147.774C12.4739 146.012 20.9551 144.745 32.6304 143.974C33.6768 143.919 34.7507 143.864 35.8522 143.809Z" fill="#FFCB05"/>
</svg>
