<svg width="120" height="120" viewBox="0 0 120 120" fill="none" xmlns="http://www.w3.org/2000/svg">
<g clip-path="url(#clip0_161_385)">
<circle cx="60" cy="60" r="60" fill="#1C2233"/>
<path d="M51.7383 56.073C51.5252 50.5765 51.0991 44.867 50.46 38.9443C50.1617 36.1322 49.7783 33.6183 49.3096 31.4026L63.69 36.26C65.0535 40.3078 66.0335 46.8696 66.63 55.9452V56.137C76.4726 56.5204 84.7387 56.9891 91.4283 57.543V57.607H91.3644C91.1939 57.8626 90.7039 58.5443 89.8943 59.6522C88.8717 61.1009 87.5935 62.9117 86.0596 65.0848C84.5683 67.2578 82.9917 69.5161 81.33 71.8596L74.1717 71.4122C71.9561 71.2843 69.4848 71.1778 66.7578 71.0926C66.7152 71.5613 66.6939 72.0513 66.6939 72.5626C66.3104 82.7461 65.8417 91.2465 65.2878 98.0639L65.2239 98C65.0109 97.8722 64.3078 97.3822 63.1148 96.53C61.6661 95.55 59.8552 94.293 57.6822 92.7591C55.5517 91.2252 53.3148 89.6274 50.9713 87.9657L51.4187 80.8074C51.5891 77.9952 51.717 74.7357 51.8022 71.0287C45.6239 71.1991 39.1261 71.6252 32.3087 72.307C29.4965 72.6478 26.9826 73.0526 24.767 73.5213L29.5604 59.1409C33.6509 57.7774 40.2126 56.7974 49.2457 56.2009C50.0552 56.1583 50.8861 56.1157 51.7383 56.073Z" fill="#FFCB05"/>
</g>
<defs>
<clipPath id="clip0_161_385">
<rect width="120" height="120" fill="white"/>
</clipPath>
</defs>
</svg>
