<svg width="32" height="33" viewBox="0 0 32 33" fill="none" xmlns="http://www.w3.org/2000/svg">
<g clip-path="url(#clip0_7_189)">
<path d="M24 7.08364C24 6.20002 23.2836 5.48364 22.4 5.48364H1.6C0.716375 5.48364 0 6.20002 0 7.08364C0 7.96727 0.716375 8.68364 1.6 8.68364H22.4C23.2836 8.68364 24 7.9672 24 7.08364ZM1.6 15.0836H30.4C31.2836 15.0836 32 15.8001 32 16.6836C32 17.5673 31.2836 18.2836 30.4 18.2836H1.6C0.716375 18.2836 0 17.5673 0 16.6836C0 15.8001 0.716375 15.0836 1.6 15.0836ZM1.6 24.6836H16C16.8836 24.6836 17.6 25.4 17.6 26.2836C17.6 27.1672 16.8836 27.8836 16 27.8836H1.6C0.716375 27.8836 0 27.1672 0 26.2836C0 25.4 0.716375 24.6836 1.6 24.6836Z" fill="#FF8000"/>
</g>
<defs>
<clipPath id="clip0_7_189">
<rect width="32" height="32" fill="white" transform="matrix(-1 0 0 1 32 0.683594)"/>
</clipPath>
</defs>
</svg>
