<svg width="294" height="126" viewBox="0 0 294 126" fill="none" xmlns="http://www.w3.org/2000/svg">
<mask id="mask0_12_94" style="mask-type:luminance" maskUnits="userSpaceOnUse" x="176" y="25" width="36" height="101">
<path d="M203.385 62.7666V48.3867C203.385 35.7225 206.024 29.7032 193.966 26.953C188.564 25.7212 182.489 24.7761 176.867 25.1885C176.522 26.9238 176.289 28.7025 176.161 30.5118C175.909 34.0708 176.029 37.6061 176.029 41.1665V93.3374C176.029 105.168 181.224 116.084 192.014 121.854C198.357 125.246 205.008 126.018 211.522 124.869C201.123 106.123 203.385 83.2892 203.385 62.7666Z" fill="white"/>
</mask>
<g mask="url(#mask0_12_94)">
<path d="M211.522 24.7761H175.908V126.018H211.522V24.7761Z" fill="#FF8000"/>
</g>
<mask id="mask1_12_94" style="mask-type:luminance" maskUnits="userSpaceOnUse" x="177" y="0" width="106" height="58">
<path d="M236.287 43.795C249.018 51.136 261.177 64.6917 272.011 53.0656C275.576 49.2403 279.354 44.5532 282.035 39.5647V39.5651C280.731 38.4302 279.337 37.3667 277.868 36.3751C274.908 34.3778 271.782 32.7138 268.695 30.9337L223.456 4.84799C213.234 -1.04588 201.089 -2.00322 190.736 4.41638C184.071 8.54895 179.922 14.557 177.796 21.4885C185.508 21.1194 193.962 23.0841 200.24 25.0279C213.413 29.1061 224.322 36.8962 236.287 43.795Z" fill="white"/>
</mask>
<g mask="url(#mask1_12_94)">
<path d="M282.035 -2.00317H177.796V64.6917H282.035V-2.00317Z" fill="#FF8000"/>
</g>
<mask id="mask2_12_94" style="mask-type:luminance" maskUnits="userSpaceOnUse" x="208" y="42" width="86" height="83">
<path d="M293.208 62.0288C292.956 54.1721 289.801 47.5625 284.825 42.2492C273.044 63.2241 256.088 70.3203 236.286 81.738L222.82 89.5023C215.334 93.8199 206.969 95.5815 208.208 102.758C209.294 109.041 211.319 117.331 215.015 124.067C217.355 123.408 219.668 122.512 221.93 121.413C225.142 119.852 228.148 117.98 231.235 116.199L276.473 90.1141C286.732 84.1984 293.599 74.2475 293.208 62.0288Z" fill="white"/>
</mask>
<g mask="url(#mask2_12_94)">
<path d="M293.599 42.2493H206.969V124.067H293.599V42.2493Z" fill="#FF8000"/>
</g>
<path fill-rule="evenodd" clip-rule="evenodd" d="M211.522 124.869C183.562 114.608 183.198 53.4366 191.669 26.4571C186.878 25.4839 181.704 24.8336 176.867 25.1885C176.522 26.9238 176.289 28.7025 176.161 30.5117C175.908 34.0707 176.029 37.6061 176.029 41.1665V93.3373C176.029 105.168 181.224 116.084 192.014 121.854C198.356 125.246 205.008 126.018 211.522 124.869Z" fill="#FF8000"/>
<path fill-rule="evenodd" clip-rule="evenodd" d="M284.825 42.2492C291.2 71.999 237.091 105.79 210.271 111.992C211.418 116.089 212.958 120.318 215.015 124.067C217.355 123.408 219.668 122.512 221.93 121.413C225.142 119.852 228.147 117.98 231.235 116.199L276.473 90.1141C286.732 84.1984 293.599 74.2475 293.208 62.0288C292.956 54.1721 289.801 47.5625 284.825 42.2492Z" fill="#FF8000"/>
<path fill-rule="evenodd" clip-rule="evenodd" d="M177.796 21.4885C200.003 1.27349 255.27 29.8365 274.893 49.8201C277.519 46.7103 280.072 43.2184 282.035 39.5651C277.797 35.8789 273.531 33.7224 268.695 30.9337L223.456 4.84799C213.234 -1.04588 201.089 -2.00322 190.736 4.41638C184.071 8.54895 179.922 14.557 177.796 21.4885Z" fill="#FF8000"/>
<path fill-rule="evenodd" clip-rule="evenodd" d="M227.575 20.6778C234.939 20.3648 244.086 20.899 255.123 23.1082L223.455 4.84799C213.234 -1.04587 201.089 -2.00322 190.735 4.41638C184.07 8.54895 179.922 14.557 177.796 21.4885C185.508 21.1194 193.962 23.0841 200.24 25.0279C201.416 25.3917 202.573 25.7855 203.715 26.2052C203.715 26.2052 211.282 21.3697 227.575 20.6778Z" fill="#FF8000"/>
<path fill-rule="evenodd" clip-rule="evenodd" d="M284.825 42.2492C280.369 50.1829 275.172 56.1307 269.362 61.078C269.362 61.078 267.6 71.4459 261.679 84.573C258.629 91.3365 254.475 98.8318 248.89 106.019L276.473 90.1141C286.732 84.1984 293.599 74.2475 293.208 62.0288C292.957 54.1721 289.801 47.5625 284.825 42.2492Z" fill="#FF8000"/>
<path fill-rule="evenodd" clip-rule="evenodd" d="M204.215 101.208C204.215 101.208 196.459 96.8379 188.793 87.6262C183.76 81.579 178.765 73.4456 176.029 63.0921V93.3373C176.029 105.168 181.224 116.084 192.014 121.854C198.357 125.245 205.008 126.018 211.522 124.869C207.426 117.486 205.295 109.469 204.215 101.208Z" fill="white"/>
<path d="M36.0625 108C31.0625 108 26.4375 106.771 22.1875 104.312C17.9792 101.812 14.625 98.4583 12.125 94.25C9.66667 90 8.4375 85.3958 8.4375 80.4375V25.875L25.1875 21.6875V80.4375C25.1875 82.3958 25.6667 84.2083 26.625 85.875C27.625 87.5417 28.9583 88.8542 30.625 89.8125C32.2917 90.7708 34.1042 91.25 36.0625 91.25L39 99.6875L36.0625 108ZM35.8125 108L33.125 99.625L35.875 91.25H36.125C38.0833 91.25 39.875 90.7708 41.5 89.8125C43.1667 88.8125 44.4792 87.4792 45.4375 85.8125C46.4375 84.1458 46.9375 82.3542 46.9375 80.4375V52.875H74.5C79.5 52.875 84.1042 54.125 88.3125 56.625C92.5208 59.0833 95.8542 62.4167 98.3125 66.625C100.812 70.8333 102.062 75.4375 102.062 80.4375C102.062 85.4375 100.812 90.0417 98.3125 94.25C95.8542 98.4583 92.5208 101.812 88.3125 104.312C84.1042 106.771 79.5 108 74.5 108C70.7917 108 67.2708 107.25 63.9375 105.75C60.6042 104.208 57.75 102.125 55.375 99.5C52.9583 102.167 50.0833 104.25 46.75 105.75C43.4167 107.25 39.875 108 36.125 108H35.8125ZM74.5 91.25C76.4583 91.25 78.25 90.7708 79.875 89.8125C81.5417 88.8125 82.8542 87.4792 83.8125 85.8125C84.7708 84.1458 85.25 82.3542 85.25 80.4375C85.25 78.4792 84.7708 76.6667 83.8125 75C82.8542 73.3333 81.5417 72.0208 79.875 71.0625C78.25 70.1042 76.4583 69.625 74.5 69.625H63.75V80.4375C63.75 82.3542 64.2292 84.1458 65.1875 85.8125C66.1458 87.4792 67.4375 88.8125 69.0625 89.8125C70.7292 90.7708 72.5417 91.25 74.5 91.25ZM112.5 108C108.75 108 105.229 107.25 101.938 105.75C98.6458 104.25 95.7917 102.167 93.375 99.5L88.25 88.9375L93.3125 78.875L102.062 80.4375C102.062 82.3958 102.542 84.2083 103.5 85.875C104.458 87.5417 105.75 88.8542 107.375 89.8125C109.042 90.7708 110.854 91.25 112.812 91.25L115.5 99.6875L112.5 108ZM112.062 108L109.5 99.6875L112.25 91.25H112.5C114.458 91.25 116.25 90.7708 117.875 89.8125C119.5 88.8542 120.792 87.5417 121.75 85.875C122.708 84.2083 123.188 82.3958 123.188 80.4375V58.3125L140.062 54.125V80.4375C140.062 85.3958 138.812 90 136.312 94.25C133.854 98.4583 130.5 101.812 126.25 104.312C122.042 106.771 117.458 108 112.5 108H112.062ZM125.25 27.5625H139.688V41.1875H125.25V27.5625Z" fill="white"/>
</svg>
